<mxfile host="65bd71144e">
    <diagram id="V7KtM5LwQU8jCx53H6H2" name="Pagina-1">
        <mxGraphModel dx="2426" dy="919" grid="1" gridSize="10" guides="1" tooltips="1" connect="1" arrows="1" fold="1" page="1" pageScale="1" pageWidth="827" pageHeight="1169" math="0" shadow="0">
            <root>
                <mxCell id="0"/>
                <mxCell id="1" parent="0"/>
                <mxCell id="15" style="edgeStyle=none;html=1;entryX=1.006;entryY=0.852;entryDx=0;entryDy=0;fontSize=14;exitX=0.013;exitY=0.614;exitDx=0;exitDy=0;exitPerimeter=0;entryPerimeter=0;" edge="1" parent="1" source="2" target="3">
                    <mxGeometry relative="1" as="geometry"/>
                </mxCell>
                <mxCell id="16" value="On load success, the system will return&lt;br&gt;an handle to the UMD" style="edgeLabel;html=1;align=center;verticalAlign=middle;resizable=0;points=[];fontSize=14;" vertex="1" connectable="0" parent="15">
                    <mxGeometry x="0.5264" y="1" relative="1" as="geometry">
                        <mxPoint x="71" y="-31" as="offset"/>
                    </mxGeometry>
                </mxCell>
                <mxCell id="21" style="edgeStyle=none;html=1;entryX=1.02;entryY=0.962;entryDx=0;entryDy=0;entryPerimeter=0;fontSize=14;exitX=-0.015;exitY=0.96;exitDx=0;exitDy=0;exitPerimeter=0;" edge="1" parent="1" source="2" target="4">
                    <mxGeometry relative="1" as="geometry"/>
                </mxCell>
                <mxCell id="22" value="The UMD is ready to communicate with the GPU" style="edgeLabel;html=1;align=center;verticalAlign=middle;resizable=0;points=[];fontSize=14;" vertex="1" connectable="0" parent="21">
                    <mxGeometry x="0.4572" y="-2" relative="1" as="geometry">
                        <mxPoint x="143" y="-11" as="offset"/>
                    </mxGeometry>
                </mxCell>
                <mxCell id="2" value="&lt;font style=&quot;font-size: 25px;&quot;&gt;User-mode&lt;br&gt;Driver DLL&lt;/font&gt;" style="rounded=0;whiteSpace=wrap;html=1;" vertex="1" parent="1">
                    <mxGeometry x="770" y="120" width="120" height="440" as="geometry"/>
                </mxCell>
                <mxCell id="9" style="edgeStyle=none;html=1;entryX=1;entryY=0.25;entryDx=0;entryDy=0;fontSize=14;exitX=-0.001;exitY=0.344;exitDx=0;exitDy=0;exitPerimeter=0;" edge="1" parent="1" source="3" target="4">
                    <mxGeometry relative="1" as="geometry"/>
                </mxCell>
                <mxCell id="10" value="DXGI returns selected GPU &lt;br&gt;and Monitor information" style="edgeLabel;html=1;align=center;verticalAlign=middle;resizable=0;points=[];fontSize=14;" vertex="1" connectable="0" parent="9">
                    <mxGeometry x="0.411" y="-2" relative="1" as="geometry">
                        <mxPoint x="49" y="-28" as="offset"/>
                    </mxGeometry>
                </mxCell>
                <mxCell id="13" style="edgeStyle=none;html=1;fontSize=14;exitX=1.026;exitY=0.586;exitDx=0;exitDy=0;exitPerimeter=0;entryX=-0.008;entryY=0.424;entryDx=0;entryDy=0;entryPerimeter=0;" edge="1" parent="1" source="3" target="2">
                    <mxGeometry relative="1" as="geometry">
                        <mxPoint x="481" y="370" as="sourcePoint"/>
                        <mxPoint x="770" y="300" as="targetPoint"/>
                    </mxGeometry>
                </mxCell>
                <mxCell id="14" value="DXGI will load the DLL of the UMD&lt;br&gt;but not initialize the core functionality" style="edgeLabel;html=1;align=center;verticalAlign=middle;resizable=0;points=[];fontSize=14;" vertex="1" connectable="0" parent="13">
                    <mxGeometry x="-0.7473" y="-3" relative="1" as="geometry">
                        <mxPoint x="104" y="-33" as="offset"/>
                    </mxGeometry>
                </mxCell>
                <mxCell id="17" style="edgeStyle=none;html=1;entryX=0.999;entryY=0.634;entryDx=0;entryDy=0;fontSize=14;exitX=-0.008;exitY=0.867;exitDx=0;exitDy=0;exitPerimeter=0;entryPerimeter=0;" edge="1" parent="1" source="3" target="4">
                    <mxGeometry relative="1" as="geometry"/>
                </mxCell>
                <mxCell id="18" value="DXGI passes the handle &lt;br&gt;back to the runtime" style="edgeLabel;html=1;align=center;verticalAlign=middle;resizable=0;points=[];fontSize=14;" vertex="1" connectable="0" parent="17">
                    <mxGeometry x="0.6778" y="-1" relative="1" as="geometry">
                        <mxPoint x="91" y="-28" as="offset"/>
                    </mxGeometry>
                </mxCell>
                <mxCell id="3" value="&lt;font style=&quot;font-size: 25px;&quot;&gt;DXGI&lt;/font&gt;" style="rounded=0;whiteSpace=wrap;html=1;" vertex="1" parent="1">
                    <mxGeometry x="360" y="120" width="120" height="320" as="geometry"/>
                </mxCell>
                <mxCell id="7" style="edgeStyle=none;html=1;fontSize=14;exitX=1.02;exitY=0.087;exitDx=0;exitDy=0;exitPerimeter=0;entryX=-0.015;entryY=0.117;entryDx=0;entryDy=0;entryPerimeter=0;" edge="1" parent="1" source="4" target="3">
                    <mxGeometry relative="1" as="geometry">
                        <mxPoint x="357" y="161" as="targetPoint"/>
                    </mxGeometry>
                </mxCell>
                <mxCell id="8" value="The runtime asks the GPU to use&lt;br&gt;for rendering" style="edgeLabel;html=1;align=center;verticalAlign=middle;resizable=0;points=[];fontSize=14;" vertex="1" connectable="0" parent="7">
                    <mxGeometry x="-0.8101" y="-2" relative="1" as="geometry">
                        <mxPoint x="89" y="-30" as="offset"/>
                    </mxGeometry>
                </mxCell>
                <mxCell id="11" style="edgeStyle=none;html=1;entryX=0;entryY=0.594;entryDx=0;entryDy=0;entryPerimeter=0;fontSize=14;exitX=0.999;exitY=0.432;exitDx=0;exitDy=0;exitPerimeter=0;" edge="1" parent="1" source="4" target="3">
                    <mxGeometry relative="1" as="geometry"/>
                </mxCell>
                <mxCell id="12" value="The runtime asks to load the UMD&lt;br&gt;for the specified GPU" style="edgeLabel;html=1;align=center;verticalAlign=middle;resizable=0;points=[];fontSize=14;" vertex="1" connectable="0" parent="11">
                    <mxGeometry x="-0.5569" y="3" relative="1" as="geometry">
                        <mxPoint x="67" y="-27" as="offset"/>
                    </mxGeometry>
                </mxCell>
                <mxCell id="19" style="edgeStyle=none;html=1;fontSize=14;" edge="1" parent="1">
                    <mxGeometry relative="1" as="geometry">
                        <mxPoint x="120" y="490" as="sourcePoint"/>
                        <mxPoint x="770" y="490" as="targetPoint"/>
                    </mxGeometry>
                </mxCell>
                <mxCell id="20" value="The runtime initializes the core UMD functionality&lt;br&gt;and also passes the callbacks to use" style="edgeLabel;html=1;align=center;verticalAlign=middle;resizable=0;points=[];fontSize=14;" vertex="1" connectable="0" parent="19">
                    <mxGeometry x="-0.6924" y="1" relative="1" as="geometry">
                        <mxPoint x="209" y="-28" as="offset"/>
                    </mxGeometry>
                </mxCell>
                <mxCell id="23" style="edgeStyle=none;html=1;entryX=1.013;entryY=0.966;entryDx=0;entryDy=0;entryPerimeter=0;fontSize=14;exitX=-0.015;exitY=0.966;exitDx=0;exitDy=0;exitPerimeter=0;" edge="1" parent="1" source="4" target="5">
                    <mxGeometry relative="1" as="geometry"/>
                </mxCell>
                <mxCell id="24" value="The runtime returns the newly&lt;br&gt;created device that can talk&lt;br&gt;to the UMD" style="edgeLabel;html=1;align=center;verticalAlign=middle;resizable=0;points=[];fontSize=14;" vertex="1" connectable="0" parent="23">
                    <mxGeometry x="0.6022" y="1" relative="1" as="geometry">
                        <mxPoint x="60" y="-36" as="offset"/>
                    </mxGeometry>
                </mxCell>
                <mxCell id="4" value="&lt;font style=&quot;font-size: 25px;&quot;&gt;D3D10&lt;/font&gt;" style="rounded=0;whiteSpace=wrap;html=1;" vertex="1" parent="1">
                    <mxGeometry y="120" width="120" height="440" as="geometry"/>
                </mxCell>
                <mxCell id="6" value="&lt;font style=&quot;font-size: 14px;&quot;&gt;The game request a D3D10&lt;br&gt;Device&lt;/font&gt;" style="edgeStyle=none;html=1;exitX=1.013;exitY=0.08;exitDx=0;exitDy=0;exitPerimeter=0;" edge="1" parent="1" source="5">
                    <mxGeometry x="-0.0076" y="25" relative="1" as="geometry">
                        <mxPoint y="155" as="targetPoint"/>
                        <mxPoint as="offset"/>
                    </mxGeometry>
                </mxCell>
                <mxCell id="5" value="&lt;font style=&quot;font-size: 25px;&quot;&gt;Game&lt;br&gt;App&lt;br&gt;&lt;/font&gt;" style="rounded=0;whiteSpace=wrap;html=1;" vertex="1" parent="1">
                    <mxGeometry x="-320" y="120" width="120" height="440" as="geometry"/>
                </mxCell>
            </root>
        </mxGraphModel>
    </diagram>
</mxfile>